{
  "source": "C:\\Users\\Peter\\Desktop\\stuff\\MIUN\\quantitative_research\\video_compression\\videos\\BVI-HD\\BVI-HD_CDVL_videos\\ORIG\\BubblesPitcher_1920x1080_60fps.mp4",
  "output": "C:\\Users\\Peter\\Desktop\\stuff\\MIUN\\quantitative_research\\video_compression\\compressed_videos\\BVI-HD\\h264\\2.5\\BubblesPitcher_1920x1080_60fps_h264.mp4",
  "codec": "h264",
  "ok": "Input #0, mov,mp4,m4a,3gp,3g2,mj2, from 'C:\\Users\\Peter\\Desktop\\stuff\\MIUN\\quantitative_research\\video_compression\\videos\\BVI-HD\\BVI-HD_CDVL_videos\\ORIG\\BubblesPitcher_1920x1080_60fps.mp4':\n  Metadata:\n    major_brand     : isom\n    minor_version   : 512\n    compatible_brands: isomiso2avc1mp41\n    encoder         : Lavf54.28.101\n  Duration: 00:00:05.00, start: 0.000000, bitrate: 188849 kb/s\n  Stream #0:0[0x1](und): Video: h264 (High 4:4:4 Predictive) (avc1 / 0x31637661), yuv420p(progressive), 1920x1080, 188844 kb/s, 60 fps, 60 tbr, 60 tbn (default)\n    Metadata:\n      handler_name    : VideoHandler\n      vendor_id       : [0][0][0][0]\n[out#0/mp4 @ 000001365e92d6c0] Codec AVOption b:a (set bitrate (in bits/s)) has not been used for any stream. The most likely reason is either wrong type (e.g. a video option with no video streams) or that it is a private option of some decoder which was not actually used for any stream.\nStream mapping:\n  Stream #0:0 -> #0:0 (h264 (native) -> h264 (libx264))\nPress [q] to stop, [?] for help\n[libx264 @ 000001365ea20240] using cpu capabilities: MMX2 SSE2Fast SSSE3 SSE4.2 AVX FMA3 BMI2 AVX2\n[libx264 @ 000001365ea20240] profile High, level 5.0, 4:2:0, 8-bit\n[libx264 @ 000001365ea20240] 264 - core 165 r3222 b35605a - H.264/MPEG-4 AVC codec - Copyleft 2003-2025 - http://www.videolan.org/x264.html - options: cabac=1 ref=5 deblock=1:0:0 analyse=0x3:0x113 me=hex subme=8 psy=1 psy_rd=1.00:0.00 mixed_ref=1 me_range=16 chroma_me=1 trellis=2 8x8dct=1 cqm=0 deadzone=21,11 fast_pskip=1 chroma_qp_offset=-2 threads=18 lookahead_threads=3 sliced_threads=0 nr=0 decimate=1 interlaced=0 bluray_compat=0 constrained_intra=0 bframes=3 b_pyramid=2 b_adapt=1 b_bias=0 direct=3 weightb=1 open_gop=0 weightp=2 keyint=250 keyint_min=25 scenecut=40 intra_refresh=0 rc_lookahead=50 rc=cbr mbtree=1 bitrate=2500 ratetol=1.0 qcomp=0.60 qpmin=0 qpmax=69 qpstep=4 vbv_maxrate=2500 vbv_bufsize=2500 nal_hrd=none filler=0 ip_ratio=1.40 aq=1:1.00\nOutput #0, mp4, to 'C:\\Users\\Peter\\Desktop\\stuff\\MIUN\\quantitative_research\\video_compression\\compressed_videos\\BVI-HD\\h264\\2.5\\BubblesPitcher_1920x1080_60fps_h264.mp4':\n  Metadata:\n    major_brand     : isom\n    minor_version   : 512\n    compatible_brands: isomiso2avc1mp41\n    encoder         : Lavf62.3.100\n  Stream #0:0(und): Video: h264 (avc1 / 0x31637661), yuv420p(tv, progressive), 1920x1080, q=2-31, 2500 kb/s, 60 fps, 15360 tbn (default)\n    Metadata:\n      encoder         : Lavc62.11.100 libx264\n      handler_name    : VideoHandler\n      vendor_id       : [0][0][0][0]\n    Side data:\n      cpb: bitrate max/min/avg: 2500000/0/2500000 buffer size: 2500000 vbv_delay: N/A\nframe=    0 fps=0.0 q=0.0 size=       0KiB time=N/A bitrate=N/A speed=N/A elapsed=0:00:00.51    \nframe=    0 fps=0.0 q=0.0 size=       0KiB time=N/A bitrate=N/A speed=N/A elapsed=0:00:01.13    \nframe=   16 fps=9.6 q=32.0 size=       0KiB time=00:00:00.21 bitrate=   1.8kbits/s speed=0.129x elapsed=0:00:01.67    \nframe=   48 fps= 22 q=34.0 size=       0KiB time=00:00:00.76 bitrate=   0.5kbits/s speed=0.344x elapsed=0:00:02.22    \nframe=   72 fps= 26 q=36.0 size=     256KiB time=00:00:01.16 bitrate=1797.9kbits/s speed=0.42x elapsed=0:00:02.77    \nframe=  100 fps= 30 q=38.0 size=     512KiB time=00:00:01.56 bitrate=2677.5kbits/s speed=0.475x elapsed=0:00:03.29    \nframe=  109 fps= 28 q=39.0 size=     512KiB time=00:00:01.78 bitrate=2352.2kbits/s speed=0.463x elapsed=0:00:03.85    \nframe=  114 fps= 26 q=40.0 size=     512KiB time=00:00:01.86 bitrate=2247.2kbits/s speed=0.425x elapsed=0:00:04.39    \nframe=  127 fps= 26 q=41.0 size=     512KiB time=00:00:02.08 bitrate=2013.5kbits/s speed=0.422x elapsed=0:00:04.93    \nframe=  140 fps= 26 q=42.0 size=     512KiB time=00:00:02.28 bitrate=1837.1kbits/s speed=0.417x elapsed=0:00:05.47    \nframe=  153 fps= 25 q=44.0 size=     768KiB time=00:00:02.50 bitrate=2516.7kbits/s speed=0.414x elapsed=0:00:06.03    \nframe=  165 fps= 25 q=45.0 size=     768KiB time=00:00:02.70 bitrate=2330.3kbits/s speed=0.411x elapsed=0:00:06.57    \nframe=  177 fps= 25 q=46.0 size=     768KiB time=00:00:02.91 bitrate=2157.2kbits/s speed=0.409x elapsed=0:00:07.12    \nframe=  190 fps= 25 q=46.0 size=    1024KiB time=00:00:03.13 bitrate=2677.3kbits/s speed=0.409x elapsed=0:00:07.66    \nframe=  201 fps= 24 q=46.0 size=    1024KiB time=00:00:03.31 bitrate=2529.3kbits/s speed=0.402x elapsed=0:00:08.24    \nframe=  213 fps= 24 q=46.0 size=    1024KiB time=00:00:03.51 bitrate=2385.5kbits/s speed=0.399x elapsed=0:00:08.80    \nframe=  226 fps= 24 q=46.0 size=    1024KiB time=00:00:03.73 bitrate=2247.1kbits/s speed= 0.4x elapsed=0:00:09.34    \nframe=  250 fps= 25 q=46.0 size=    1280KiB time=00:00:04.08 bitrate=2568.0kbits/s speed=0.414x elapsed=0:00:09.87    \nframe=  288 fps= 28 q=-1.0 size=    1280KiB time=00:00:04.73 bitrate=2215.4kbits/s speed=0.452x elapsed=0:00:10.46    \n[mp4 @ 000001365e92d7c0] Starting second pass: moving the moov atom to the beginning of the file\n[out#0/mp4 @ 000001365e92d6c0] video:1577KiB audio:0KiB subtitle:0KiB other streams:0KiB global headers:0KiB muxing overhead: 0.189704%\nframe=  300 fps= 28 q=-1.0 Lsize=    1580KiB time=00:00:04.96 bitrate=2605.7kbits/s speed=0.467x elapsed=0:00:10.64    \n[libx264 @ 000001365ea20240] frame I:2     Avg QP:25.68  size: 14106\n[libx264 @ 000001365ea20240] frame P:207   Avg QP:38.57  size:  5962\n[libx264 @ 000001365ea20240] frame B:91    Avg QP:26.51  size:  3862\n[libx264 @ 000001365ea20240] consecutive B-frames: 59.3%  0.0%  2.0% 38.7%\n[libx264 @ 000001365ea20240] mb I  I16..4: 47.9% 51.6%  0.4%\n[libx264 @ 000001365ea20240] mb P  I16..4:  6.5% 10.5%  0.0%  P16..4: 15.3%  0.8%  0.8%  0.0%  0.0%    skip:66.2%\n[libx264 @ 000001365ea20240] mb B  I16..4:  1.0%  1.0%  0.0%  B16..8: 18.3%  0.9%  0.1%  direct: 2.9%  skip:75.8%  L0:46.2% L1:52.6% BI: 1.2%\n[libx264 @ 000001365ea20240] 8x8 transform intra:60.4% inter:96.0%\n[libx264 @ 000001365ea20240] direct mvs  spatial:89.0% temporal:11.0%\n[libx264 @ 000001365ea20240] coded y,uvDC,uvAC intra: 4.5% 30.2% 1.4% inter: 1.7% 6.7% 0.0%\n[libx264 @ 000001365ea20240] i16 v,h,dc,p: 47% 34%  8% 11%\n[libx264 @ 000001365ea20240] i8 v,h,dc,ddl,ddr,vr,hd,vl,hu:  5%  3% 81%  2%  2%  2%  2%  1%  1%\n[libx264 @ 000001365ea20240] i4 v,h,dc,ddl,ddr,vr,hd,vl,hu: 13%  5% 41%  7%  9%  8%  6%  6%  5%\n[libx264 @ 000001365ea20240] i8c dc,h,v,p: 76% 15%  9%  1%\n[libx264 @ 000001365ea20240] Weighted P-Frames: Y:0.5% UV:0.5%\n[libx264 @ 000001365ea20240] ref P L0: 44.2%  4.8% 19.5% 11.2% 10.6%  9.6%\n[libx264 @ 000001365ea20240] ref B L0: 72.3% 17.4%  7.6%  2.6%\n[libx264 @ 000001365ea20240] ref B L1: 92.6%  7.4%\n[libx264 @ 000001365ea20240] kb/s:2582.17\n",
  "seconds": 10.908734798431396,
  "probe_out": {}
}